<svg xmlns="http://www.w3.org/2000/svg" width="17" height="30" viewBox="0 0 17 30" fill="none">
  <path d="M15.5529 22.0107C15.4995 21.9562 15.4195 21.9562 15.3528 22.0107C15.0994 22.2425 14.4059 22.9925 14.4059 24.3151C14.4059 25.6378 15.0994 26.3877 15.3528 26.6195C15.4061 26.6741 15.4862 26.6741 15.5529 26.6195C15.8063 26.3877 16.4998 25.6378 16.4998 24.3151C16.5131 22.9925 15.8196 22.2562 15.5529 22.0107ZM14.9393 27.3831C14.6192 27.274 13.6456 27.0286 12.5253 27.6967C11.405 28.3649 11.1249 29.3466 11.0582 29.6875C11.0448 29.7693 11.0849 29.8375 11.1515 29.8648C11.485 29.9739 12.4453 30.2193 13.5656 29.5512C14.6859 28.883 14.966 27.9013 15.0327 27.5604C15.0594 27.4786 15.0194 27.4104 14.9393 27.3831ZM8.21733 24.5469C6.95028 24.8196 6.39012 25.665 6.21673 25.965C6.17672 26.0332 6.20339 26.115 6.25674 26.1559C6.53683 26.3741 7.37708 26.9059 8.64413 26.6468C9.91117 26.3741 10.4713 25.5287 10.6447 25.2287C10.6847 25.1605 10.6581 25.0787 10.6047 25.0378C10.3246 24.8196 9.47104 24.2742 8.21733 24.5469ZM11.4183 24.506C11.7384 24.3697 12.6186 23.8788 13.0188 22.6243C13.4189 21.3698 12.9921 20.4426 12.8187 20.129C12.8005 20.0969 12.7718 20.0724 12.7376 20.0599C12.7034 20.0475 12.666 20.0478 12.632 20.0608C12.3119 20.1972 11.4316 20.6881 11.0315 21.9425C10.6314 23.197 11.0582 24.1242 11.2316 24.4378C11.2716 24.506 11.3516 24.5333 11.4183 24.506ZM7.80387 21.6153C8.15064 21.5744 9.12427 21.3698 9.87116 20.2926C10.618 19.2154 10.4713 18.1928 10.378 17.8519C10.3703 17.8161 10.3493 17.7847 10.3195 17.7644C10.2896 17.744 10.2532 17.7363 10.2179 17.7428C9.87116 17.7837 8.89753 17.9882 8.15064 19.0654C7.40375 20.1427 7.55046 21.1653 7.64383 21.5062C7.65716 21.5744 7.72385 21.6153 7.80387 21.6153ZM6.87026 21.8744C6.6702 21.588 6.00333 20.8108 4.72295 20.7017C3.44257 20.579 2.65567 21.2199 2.40226 21.4653C2.34891 21.5198 2.33557 21.6017 2.38892 21.6698C2.58898 21.9562 3.25584 22.7334 4.53623 22.8425C5.81661 22.9652 6.60351 22.3243 6.85692 22.0789C6.91027 22.0244 6.92361 21.9289 6.87026 21.8744ZM9.20429 14.8521C9.20429 14.7703 9.15094 14.7157 9.08426 14.7021C8.73749 14.6475 7.75052 14.5657 6.75022 15.4111C5.74992 16.2565 5.62989 17.2656 5.61655 17.6201C5.61655 17.7019 5.6699 17.7564 5.73659 17.7701C6.08336 17.8246 7.07032 17.9064 8.07062 17.061C9.07092 16.2156 9.19096 15.2066 9.20429 14.8521ZM4.70961 17.9473C4.7763 17.9064 4.80297 17.8246 4.7763 17.7564C4.65626 17.4292 4.21613 16.502 3.01577 16.0247C1.81541 15.5475 0.895138 15.9565 0.588379 16.1202C0.521693 16.1611 0.481681 16.2429 0.508355 16.3111C0.628391 16.6383 1.06852 17.5655 2.26888 18.0428C3.48258 18.5064 4.40285 18.111 4.70961 17.9473ZM4.49622 13.2158C4.57624 13.2022 4.62959 13.1476 4.62959 13.0658C4.62959 12.7113 4.54957 11.6886 3.57594 10.816C2.60232 9.92965 1.61535 9.97056 1.26858 10.0115C1.18856 10.0251 1.13521 10.0933 1.13521 10.1615C1.13521 10.516 1.21523 11.5386 2.18886 12.4113C3.14915 13.2976 4.14945 13.2567 4.49622 13.2158ZM7.28372 11.5795C6.05668 12.0022 5.58988 12.9022 5.4565 13.2294C5.42983 13.2976 5.4565 13.3794 5.52319 13.4203C5.81661 13.5976 6.72355 14.0339 7.95058 13.6112C9.17762 13.1885 9.64443 12.2886 9.7778 11.9613C9.80447 11.8932 9.7778 11.8113 9.71111 11.7704C9.41769 11.5932 8.51075 11.1568 7.28372 11.5795ZM10.9115 8.32066C10.6447 8.10249 9.81781 7.5298 8.53743 7.74797C7.27038 7.97977 6.6702 8.7979 6.49682 9.09788C6.4568 9.16606 6.47014 9.24787 6.52349 9.30241C6.79024 9.52058 7.61715 10.0933 8.89753 9.87511C10.1646 9.6433 10.7648 8.82517 10.9381 8.52519C10.9782 8.45701 10.9648 8.3752 10.9115 8.32066ZM5.53653 8.93426C5.61655 8.93426 5.6699 8.87971 5.68324 8.81154C5.74992 8.45701 5.80327 7.43435 4.9897 6.41168C4.16278 5.40266 3.16248 5.27994 2.81571 5.2663C2.73569 5.2663 2.68234 5.32084 2.669 5.38902C2.61565 5.74354 2.54897 6.77984 3.37588 7.78887C4.2028 8.81154 5.18976 8.93426 5.53653 8.93426ZM7.5638 5.00723C7.63049 5.0345 7.71051 4.99359 7.73719 4.92541C7.8839 4.59816 8.20399 3.63004 7.6705 2.43011C7.13701 1.23019 6.20339 0.848393 5.86996 0.739309C5.8363 0.732088 5.80126 0.736147 5.77003 0.750883C5.7388 0.765619 5.71304 0.790249 5.69658 0.821123C5.5632 1.14838 5.22977 2.1165 5.7766 3.33006C6.31009 4.52998 7.24371 4.91178 7.5638 5.00723ZM10.5647 6.82075C11.8451 6.94347 12.632 6.3026 12.8854 6.0708C12.9387 6.01625 12.9521 5.93444 12.8987 5.86626C12.6987 5.57992 12.0451 4.80269 10.7514 4.67997C9.47104 4.55725 8.68414 5.19812 8.43073 5.42993C8.37738 5.48447 8.36404 5.56628 8.41739 5.63446C8.63079 5.92081 9.28432 6.69803 10.5647 6.82075ZM9.72445 3.28915C11.2449 3.5755 13.1788 1.77561 13.0321 0.180253C13.0321 0.0984401 12.9788 0.043898 12.8987 0.0302625C11.3783 -0.256083 9.4577 1.54381 9.59108 3.13916C9.59108 3.22097 9.65776 3.27552 9.72445 3.28915Z" fill="url(#paint0_linear_630_4734)"/>
  <defs>
    <linearGradient id="paint0_linear_630_4734" x1="2" y1="1.88748e-08" x2="21" y2="29" gradientUnits="userSpaceOnUse">
      <stop stop-color="white"/>
      <stop offset="1" stop-color="white" stop-opacity="0"/>
    </linearGradient>
  </defs>
</svg>