<svg xmlns="http://www.w3.org/2000/svg" width="32" height="36" viewBox="0 0 32 36" fill="none">
<g id="รงยผรงยป">
<g id="รจยทยฏรฅยพ 4 + รจยทยฏรฅยพ 3รจรง">
<path id="รจรง" fill-rule="evenodd" clip-rule="evenodd" d="M25.041 14.0856C28.0935 15.8026 28.0935 20.1974 25.041 21.9144L6.69311 32.2351C3.69923 33.9192 0 31.7557 0 28.3207V7.67931C0 4.2443 3.69923 2.08082 6.6931 3.76487L25.041 14.0856Z" fill="url(#paint0_linear_5732_20791)"/>
<mask id="mask0_5732_20791" maskUnits="userSpaceOnUse" x="0" y="3" width="28" height="30">
<path id="รจรง_2" fill-rule="evenodd" clip-rule="evenodd" d="M25.041 14.0856C28.0935 15.8026 28.0935 20.1974 25.041 21.9144L6.69311 32.2351C3.69923 33.9192 0 31.7557 0 28.3207V7.67931C0 4.2443 3.69923 2.08082 6.6931 3.76487L25.041 14.0856Z" fill="white"/>
</mask>
<g mask="url(#mask0_5732_20791)">
<path id="รงยฉรฅยฝยข" fill-rule="evenodd" clip-rule="evenodd" d="M-6.87988 26.1087L26.8293 7.38867L32.9839 17.6424L-0.725237 36.3624L-6.87988 26.1087Z" fill="url(#paint1_linear_5732_20791)"/>
<g id="รงยฉรฅยฝยข_2">
<path fill-rule="evenodd" clip-rule="evenodd" d="M-11.4053 18.4275L22.3039 -0.29248L28.4585 9.96126L-5.25063 28.6813L-11.4053 18.4275Z" fill="url(#paint2_linear_5732_20791)"/>
</g>
<path id="รงยฉรฅยฝยข_3" fill-rule="evenodd" clip-rule="evenodd" d="M-15.3184 11.2007L18.3908 -7.51932L24.5454 2.73442L-9.16371 21.4544L-15.3184 11.2007Z" fill="url(#paint3_linear_5732_20791)"/>
</g>
</g>
<path id="รฅยฝยขรงยถรงยปรฅ" fill-rule="evenodd" clip-rule="evenodd" d="M2.05847 5.04004C1.74842 5.04004 1.49707 5.29139 1.49707 5.60144V6.99864C1.49707 7.30869 1.74842 7.56004 2.05847 7.56004H2.43274C2.7428 7.56004 2.99415 7.30869 2.99415 6.99864V5.60144C2.99415 5.29139 2.7428 5.04004 2.43274 5.04004H2.05847ZM2.05847 9.72007C1.74842 9.72007 1.49707 9.97142 1.49707 10.2815V11.6787C1.49707 11.9887 1.74842 12.2401 2.05847 12.2401H2.43274C2.7428 12.2401 2.99415 11.9887 2.99415 11.6787V10.2815C2.99415 9.97142 2.7428 9.72007 2.43274 9.72007H2.05847ZM1.49707 14.9614C1.49707 14.6513 1.74842 14.4 2.05847 14.4H2.43274C2.7428 14.4 2.99415 14.6513 2.99415 14.9614V16.3586C2.99415 16.6686 2.7428 16.92 2.43274 16.92H2.05847C1.74842 16.92 1.49707 16.6686 1.49707 16.3586V14.9614ZM2.05847 19.08C1.74842 19.08 1.49707 19.3314 1.49707 19.6414V21.0386C1.49707 21.3487 1.74842 21.6 2.05847 21.6H2.43274C2.7428 21.6 2.99415 21.3487 2.99415 21.0386V19.6414C2.99415 19.3314 2.7428 19.08 2.43274 19.08H2.05847ZM1.49707 24.3214C1.49707 24.0114 1.74842 23.76 2.05847 23.76H2.43274C2.7428 23.76 2.99415 24.0114 2.99415 24.3214V25.7186C2.99415 26.0287 2.7428 26.28 2.43274 26.28H2.05847C1.74842 26.28 1.49707 26.0287 1.49707 25.7186V24.3214ZM2.05847 28.4401C1.74842 28.4401 1.49707 28.6914 1.49707 29.0015V30.3987C1.49707 30.7087 1.74842 30.9601 2.05847 30.9601H2.43274C2.7428 30.9601 2.99415 30.7087 2.99415 30.3987V29.0015C2.99415 28.6914 2.7428 28.4401 2.43274 28.4401H2.05847Z" fill="#00351E"/>
<g id="รงยผรงยป 3">
<mask id="mask1_5732_20791" maskUnits="userSpaceOnUse" x="0" y="3" width="31" height="33">
<path id="รจรง_3" fill-rule="evenodd" clip-rule="evenodd" d="M28.5789 16.0756C30.5382 17.1777 31.38 19.5558 30.4321 21.5943C28.6889 25.343 25.7771 30.8735 23.1878 32.33C20.4626 33.8629 10.7673 35.0047 4.81043 35.5808C2.21235 35.832 0 33.7765 0 31.1663L0 7.67931C0 4.2443 3.69923 2.08082 6.6931 3.76487L28.5789 16.0756Z" fill="white"/>
</mask>
<g mask="url(#mask1_5732_20791)">
<g id="รงยผรงยป 2">
<g id="รฅยฝยขรงยถรงยปรฅรฅยครคยปยฝ 3">
<path fill-rule="evenodd" clip-rule="evenodd" d="M7.7778 4.36492C6.34919 3.54331 5.70259 3.17145 4.18848 3.21654C5.25345 3.21654 8.13786 3.89359 8.02666 8.13891V17.6102H4.55357C4.32624 17.6102 4.18676 17.8593 4.30551 18.0531L12.0186 30.6427L19.7317 18.0531C19.8504 17.8593 19.7109 17.6102 19.4836 17.6102H16.0111V10.1486V9.78135C16.0111 9.30229 15.7538 8.86023 15.3369 8.62413C14.8321 8.33819 14.1584 7.95702 13.7359 7.71949C13.2067 7.42202 12.6181 7.09144 12.001 6.74492C10.8552 6.10145 9.61156 5.40303 8.46913 4.75953C8.21798 4.61806 7.98932 4.48656 7.7778 4.36492Z" fill="url(#paint4_linear_5732_20791)"/>
</g>
</g>
</g>
</g>
</g>
<defs>
<linearGradient id="paint0_linear_5732_20791" x1="54.9622" y1="23.858" x2="15.6753" y2="-13.0111" gradientUnits="userSpaceOnUse">
<stop stop-color="#00E069"/>
<stop offset="0.500067" stop-color="#00E069"/>
<stop offset="1" stop-color="#336FFF"/>
</linearGradient>
<linearGradient id="paint1_linear_5732_20791" x1="34.4023" y1="27.6457" x2="31.2958" y2="5.56571" gradientUnits="userSpaceOnUse">
<stop stop-color="#32CCFE"/>
<stop offset="1" stop-color="#0F23C8"/>
</linearGradient>
<linearGradient id="paint2_linear_5732_20791" x1="17.2343" y1="29.4902" x2="26.062" y2="6.29225" gradientUnits="userSpaceOnUse">
<stop stop-color="#00FFFD"/>
<stop offset="1" stop-color="#3752FF"/>
</linearGradient>
<linearGradient id="paint3_linear_5732_20791" x1="18.1712" y1="7.32303" x2="13.7759" y2="-1.71349" gradientUnits="userSpaceOnUse">
<stop stop-color="#00FFA1"/>
<stop offset="1" stop-color="#0AB0FF"/>
</linearGradient>
<linearGradient id="paint4_linear_5732_20791" x1="7.02864" y1="6.98342" x2="7.02864" y2="28.0486" gradientUnits="userSpaceOnUse">
<stop stop-color="#00C4C4"/>
<stop offset="1" stop-color="#89FF5A"/>
</linearGradient>
</defs>
</svg>
