<svg xmlns="http://www.w3.org/2000/svg" width="17" height="30" viewBox="0 0 17 30" fill="none">
  <path d="M4.48412 27.6967C3.36484 27.0286 2.39213 27.274 2.07233 27.3831C2.00571 27.4104 1.96573 27.4786 1.97906 27.5604C2.04568 27.9149 2.3255 28.8967 3.44479 29.5512C4.56407 30.2193 5.53678 29.9739 5.85658 29.8648C5.9232 29.8375 5.96318 29.7693 5.94985 29.6875C5.88323 29.3466 5.60341 28.3512 4.48412 27.6967ZM1.64593 22.0107C1.59264 21.9562 1.51269 21.9562 1.44606 22.0107C1.19289 22.2425 0.5 22.9925 0.5 24.3151C0.5 25.6378 1.19289 26.3877 1.44606 26.6195C1.49936 26.6741 1.57931 26.6741 1.64593 26.6195C1.89911 26.3877 2.592 25.6378 2.592 24.3151C2.592 22.9925 1.91243 22.2562 1.64593 22.0107ZM4.37752 20.0745C4.3109 20.0472 4.23095 20.0745 4.19098 20.1427C4.01775 20.4426 3.59136 21.3835 3.9911 22.638C4.39085 23.8924 5.27029 24.3833 5.59008 24.5197C5.65671 24.5469 5.73666 24.5197 5.77663 24.4515C5.94985 24.1515 6.37625 23.2106 5.9765 21.9562C5.57676 20.7017 4.69732 20.2108 4.37752 20.0745ZM8.78804 24.5469C7.52218 24.2742 6.68272 24.8196 6.4029 25.0378C6.3496 25.0787 6.32295 25.1742 6.36292 25.2287C6.53615 25.5423 7.09579 26.3877 8.36165 26.6468C9.6275 26.9195 10.467 26.3741 10.7468 26.1559C10.8001 26.115 10.8267 26.0196 10.7868 25.965C10.6269 25.665 10.0539 24.8196 8.78804 24.5469ZM6.78932 17.7292C6.75405 17.7227 6.7177 17.7304 6.68789 17.7507C6.65808 17.7711 6.63712 17.8024 6.62942 17.8382C6.54947 18.1791 6.4029 19.2018 7.13576 20.279C7.88195 21.3562 8.85466 21.5607 9.20111 21.6017C9.28106 21.6153 9.34768 21.5607 9.36101 21.4926C9.44096 21.1517 9.58753 20.129 8.85467 19.0518C8.10848 17.9746 7.13576 17.7701 6.78932 17.7292ZM12.2791 20.7017C11 20.8244 10.3337 21.588 10.1338 21.8744C10.0939 21.9425 10.0939 22.0244 10.1472 22.0789C10.4003 22.3243 11.1732 22.9652 12.4657 22.8425C13.7449 22.7198 14.4111 21.9562 14.611 21.6698C14.651 21.6017 14.651 21.5198 14.5977 21.4653C14.3445 21.2199 13.5583 20.579 12.2791 20.7017ZM16.4232 16.1202C16.1167 15.9565 15.1973 15.5611 13.998 16.0247C12.7988 16.4883 12.3591 17.4155 12.2392 17.7564C12.2125 17.8246 12.2392 17.9064 12.3058 17.9473C12.6123 18.111 13.5317 18.5064 14.7309 18.0428C15.9301 17.5792 16.3699 16.652 16.4898 16.3111C16.5164 16.2429 16.4898 16.1611 16.4232 16.1202ZM11.2665 17.7564C11.3464 17.7428 11.3864 17.6746 11.3864 17.6064C11.3731 17.2519 11.2531 16.2293 10.2538 15.3975C9.25441 14.5521 8.25505 14.6339 7.92193 14.6884C7.84198 14.7021 7.802 14.7703 7.802 14.8384C7.81533 15.193 7.93525 16.2156 8.93461 17.0474C9.93398 17.8928 10.9333 17.8246 11.2665 17.7564ZM12.3857 13.0658C12.3857 13.1476 12.439 13.2022 12.519 13.2158C12.8654 13.2567 13.8648 13.2976 14.8242 12.4249C15.7836 11.5523 15.8768 10.5296 15.8768 10.1751C15.8768 10.0933 15.8235 10.0387 15.7436 10.0251C15.3972 9.98419 14.3978 9.94328 13.4384 10.816C12.4657 11.6886 12.3724 12.7113 12.3857 13.0658ZM11.5463 13.2294C11.413 12.9022 10.9467 11.9886 9.72078 11.5795C8.49489 11.1568 7.58881 11.5932 7.29566 11.7704C7.22904 11.8113 7.20239 11.8932 7.22904 11.9613C7.36228 12.2886 7.82865 13.2022 9.05454 13.6112C10.2804 14.0339 11.1865 13.5976 11.4797 13.4203C11.5463 13.3794 11.5729 13.2976 11.5463 13.2294ZM10.4803 9.30241C10.5336 9.24787 10.5469 9.16606 10.5069 9.09788C10.3337 8.7979 9.7341 7.96613 8.46825 7.74797C7.20239 7.51616 6.36292 8.08885 6.09643 8.32066C6.04313 8.3752 6.0298 8.45701 6.06978 8.52519C6.25632 8.82517 6.84262 9.65694 8.10848 9.87511C9.37433 10.0933 10.2138 9.52058 10.4803 9.30241ZM11.3198 8.81154C11.3331 8.89335 11.3997 8.94789 11.4663 8.93426C11.8128 8.92062 12.7988 8.81154 13.625 7.78887C14.4511 6.76621 14.3845 5.74354 14.3312 5.38902C14.3178 5.30721 14.2512 5.25267 14.1846 5.2663C13.8381 5.27994 12.8521 5.38902 12.026 6.41168C11.1998 7.43435 11.2665 8.45701 11.3198 8.81154ZM9.44096 5.00723C9.77408 4.91178 10.6935 4.52998 11.2398 3.31642C11.7728 2.1165 11.453 1.13474 11.3064 0.821123C11.2798 0.752945 11.1998 0.712038 11.1332 0.739309C10.8001 0.834758 9.88068 1.21655 9.33436 2.43011C8.78804 3.64367 9.12116 4.6118 9.26773 4.92541C9.27367 4.94256 9.2829 4.95832 9.29488 4.97176C9.30686 4.98521 9.32135 4.99606 9.33749 5.00368C9.35364 5.01131 9.37111 5.01555 9.38888 5.01616C9.40664 5.01677 9.42435 5.01373 9.44096 5.00723ZM4.0977 5.86626C4.05773 5.92081 4.07105 6.00262 4.12435 6.05716C4.37752 6.3026 5.15036 6.94347 6.44287 6.82075C6.86191 6.78869 7.26962 6.66645 7.63931 6.46202C8.00899 6.25759 8.33233 5.97559 8.58817 5.63446C8.62814 5.56628 8.62814 5.48447 8.57484 5.42993C8.32167 5.18449 7.53551 4.55725 6.25632 4.67997C4.96382 4.80269 4.3109 5.56628 4.0977 5.86626ZM7.28234 3.28915C7.36228 3.27552 7.41558 3.22097 7.41558 3.13916C7.54883 1.54381 5.63006 -0.256083 4.11103 0.0302625C4.03108 0.043898 3.97778 0.0984401 3.97778 0.180253C3.83121 1.77561 5.76331 3.5755 7.28234 3.28915Z" fill="url(#paint0_linear_630_4736)"/>
  <defs>
    <linearGradient id="paint0_linear_630_4736" x1="8.5" y1="-3.77496e-08" x2="-7" y2="28" gradientUnits="userSpaceOnUse">
      <stop stop-color="white"/>
      <stop offset="1" stop-color="white" stop-opacity="0"/>
    </linearGradient>
  </defs>
</svg>